<svg width="32" height="32" viewBox="0 0 32 32" fill="none" xmlns="http://www.w3.org/2000/svg">
<path d="M16 12.6663C15.3407 12.6665 14.6963 12.8622 14.1482 13.2287C13.6001 13.5952 13.173 14.1159 12.9209 14.7251C12.6688 15.3343 12.6029 16.0045 12.7317 16.6511C12.8605 17.2977 13.1781 17.8917 13.6444 18.3578C14.1107 18.8239 14.7047 19.1413 15.3513 19.2698C15.998 19.3983 16.6682 19.3322 17.2773 19.0799C17.8864 18.8275 18.407 18.4002 18.7732 17.852C19.1395 17.3038 19.335 16.6593 19.335 16C19.3343 15.1158 18.9827 14.2681 18.3574 13.643C17.7321 13.0179 16.8842 12.6666 16 12.6663ZM23.7944 10.1038C23.6247 9.67365 23.3684 9.28301 23.0414 8.95607C22.7145 8.62912 22.3238 8.37284 21.8937 8.20312C20.5812 7.685 17.4563 7.80125 16 7.80125C14.5437 7.80125 11.4219 7.68062 10.1056 8.20312C9.67553 8.37284 9.28489 8.62912 8.95794 8.95607C8.63099 9.28301 8.37471 9.67365 8.205 10.1038C7.6875 11.4163 7.80312 14.5444 7.80312 15.9994C7.80312 17.4544 7.6875 20.5787 8.2075 21.8956C8.37721 22.3257 8.63349 22.7164 8.96044 23.0433C9.28739 23.3703 9.67803 23.6265 10.1081 23.7962C11.4206 24.3144 14.5456 24.1981 16.0025 24.1981C17.4594 24.1981 20.58 24.3187 21.8962 23.7962C22.3263 23.6265 22.717 23.3703 23.0439 23.0433C23.3709 22.7164 23.6272 22.3257 23.7969 21.8956C24.3188 20.5831 24.1987 17.455 24.1987 16C24.1987 14.545 24.3188 11.4212 23.7969 10.1044L23.7944 10.1038ZM16 21.125C14.9864 21.125 13.9955 20.8244 13.1527 20.2613C12.3099 19.6981 11.653 18.8977 11.2651 17.9613C10.8772 17.0248 10.7757 15.9943 10.9735 15.0002C11.1712 14.006 11.6593 13.0928 12.3761 12.3761C13.0928 11.6593 14.006 11.1712 15.0002 10.9735C15.9943 10.7757 17.0248 10.8772 17.9613 11.2651C18.8977 11.653 19.6981 12.3099 20.2613 13.1527C20.8244 13.9955 21.125 14.9864 21.125 16C21.1258 16.6733 20.9938 17.3401 20.7366 17.9622C20.4793 18.5844 20.1018 19.1497 19.6258 19.6258C19.1497 20.1018 18.5844 20.4793 17.9622 20.7366C17.3401 20.9938 16.6733 21.1258 16 21.125ZM21.3363 11.8562C21.0996 11.8564 20.8683 11.7863 20.6715 11.6549C20.4747 11.5236 20.3213 11.3368 20.2306 11.1182C20.14 10.8996 20.1162 10.6591 20.1623 10.427C20.2084 10.1949 20.3223 9.98171 20.4895 9.81434C20.6568 9.64698 20.87 9.53299 21.102 9.48678C21.3341 9.44057 21.5746 9.46423 21.7933 9.55475C22.0119 9.64527 22.1988 9.7986 22.3302 9.99533C22.4617 10.1921 22.5319 10.4234 22.5319 10.66C22.5325 10.8171 22.5022 10.9728 22.4425 11.1182C22.3828 11.2636 22.2951 11.3957 22.1842 11.5071C22.0734 11.6185 21.9416 11.7069 21.7965 11.7672C21.6515 11.8276 21.4959 11.8587 21.3388 11.8588L21.3363 11.8562ZM27 2H5C4.20435 2 3.44129 2.31607 2.87868 2.87868C2.31607 3.44129 2 4.20435 2 5L2 27C2 27.7956 2.31607 28.5587 2.87868 29.1213C3.44129 29.6839 4.20435 30 5 30H27C27.7956 30 28.5587 29.6839 29.1213 29.1213C29.6839 28.5587 30 27.7956 30 27V5C30 4.20435 29.6839 3.44129 29.1213 2.87868C28.5587 2.31607 27.7956 2 27 2ZM25.93 20.125C25.8494 21.7269 25.4837 23.1462 24.3144 24.3125C23.145 25.4788 21.7269 25.8519 20.1269 25.9281C18.4762 26.0212 13.5275 26.0212 11.8769 25.9281C10.275 25.8475 8.86062 25.4813 7.68937 24.3125C6.51813 23.1437 6.15 21.7237 6.07375 20.125C5.98062 18.4737 5.98062 13.5244 6.07375 11.875C6.15438 10.2731 6.51562 8.85375 7.68937 7.6875C8.86312 6.52125 10.2812 6.1525 11.8769 6.07625C13.5275 5.98312 18.4762 5.98312 20.1269 6.07625C21.7288 6.15688 23.1475 6.52312 24.3144 7.69187C25.4813 8.86063 25.8538 10.2806 25.93 11.8825C26.0231 13.5275 26.0231 18.4725 25.93 20.125Z" fill="#F7A29E"/>
</svg>
