<svg width="50" height="50" viewBox="0 0 50 50" fill="none" xmlns="http://www.w3.org/2000/svg">
<path d="M30.075 43.6208C25.9226 43.6147 21.8445 42.5185 18.2486 40.4418C14.6528 38.3651 11.6652 35.3807 9.58465 31.787C7.50413 28.1933 6.40361 24.1164 6.39314 19.964C6.38267 15.8115 7.46263 11.7291 9.52501 8.12498C9.79392 7.65883 10.1674 7.26151 10.6161 6.96433C11.0648 6.66716 11.5763 6.47824 12.1104 6.41248C12.6603 6.33645 13.2202 6.38949 13.746 6.5674C14.2718 6.74531 14.7489 7.0432 15.1396 7.43748L21.6792 13.9791C22.0115 14.311 22.2751 14.7051 22.4549 15.1389C22.6348 15.5727 22.7274 16.0377 22.7274 16.5073C22.7274 16.9769 22.6348 17.4419 22.4549 17.8757C22.2751 18.3095 22.0115 18.7036 21.6792 19.0354L21.0646 19.6604C20.3099 20.4169 19.8861 21.4418 19.8861 22.5104C19.8861 23.579 20.3099 24.6039 21.0646 25.3604L24.6479 28.9458C25.4162 29.6779 26.4367 30.0863 27.4979 30.0863C28.5591 30.0863 29.5797 29.6779 30.3479 28.9458L30.9521 28.3417C31.6234 27.672 32.533 27.2959 33.4813 27.2959C34.4295 27.2959 35.3391 27.672 36.0104 28.3417L42.55 34.8812C42.9435 35.2729 43.2409 35.7505 43.4187 36.2764C43.5966 36.8024 43.6501 37.3624 43.575 37.9125C43.5085 38.4458 43.3192 38.9565 43.0221 39.4043C42.725 39.8522 42.328 40.2251 41.8625 40.4937C38.2752 42.5509 34.2103 43.6293 30.075 43.6208ZM12.5875 8.46457C12.5179 8.46434 12.4483 8.46851 12.3792 8.47707C12.1641 8.50367 11.958 8.57978 11.7773 8.69943C11.5966 8.81908 11.446 8.97901 11.3375 9.16665C8.97658 13.2832 8.036 18.0623 8.66094 22.7665C9.28587 27.4707 11.4416 31.8384 14.7954 35.1958C18.1492 38.5532 22.5147 40.7135 27.2182 41.3434C31.9217 41.9733 36.7018 41.0378 40.8208 38.6812C41.0084 38.5726 41.1682 38.422 41.2879 38.2413C41.4075 38.0606 41.4837 37.8546 41.5104 37.6396C41.5423 37.4061 41.5197 37.1684 41.4446 36.9451C41.3694 36.7217 41.2436 36.5188 41.0771 36.3521L34.5375 29.8125C34.3988 29.6738 34.2341 29.5637 34.0529 29.4887C33.8717 29.4136 33.6774 29.375 33.4813 29.375C33.2851 29.375 33.0909 29.4136 32.9096 29.4887C32.7284 29.5637 32.5637 29.6738 32.425 29.8125L31.8208 30.4167C30.656 31.528 29.1079 32.148 27.4979 32.148C25.888 32.148 24.3399 31.528 23.175 30.4167L19.5833 26.825C18.4398 25.6773 17.7976 24.1232 17.7976 22.5031C17.7976 20.883 18.4398 19.3289 19.5833 18.1812L20.2083 17.5562C20.3471 17.4175 20.4571 17.2529 20.5322 17.0716C20.6072 16.8904 20.6459 16.6961 20.6459 16.5C20.6459 16.3038 20.6072 16.1096 20.5322 15.9283C20.4571 15.7471 20.3471 15.5824 20.2083 15.4437L13.6667 8.9104C13.5251 8.76856 13.3569 8.65615 13.1716 8.57963C12.9864 8.50311 12.7879 8.46401 12.5875 8.46457Z" fill="#F7A29E"/>
</svg>
