<svg width="30" height="42" viewBox="0 0 30 42" fill="none" xmlns="http://www.w3.org/2000/svg">
<path d="M15 0.166687C6.9375 0.166687 0.416664 6.68752 0.416664 14.75C0.416664 25.6875 15 41.8334 15 41.8334C15 41.8334 29.5833 25.6875 29.5833 14.75C29.5833 6.68752 23.0625 0.166687 15 0.166687ZM15 19.9584C13.6187 19.9584 12.2939 19.4096 11.3171 18.4329C10.3404 17.4561 9.79166 16.1314 9.79166 14.75C9.79166 13.3687 10.3404 12.0439 11.3171 11.0672C12.2939 10.0904 13.6187 9.54169 15 9.54169C16.3813 9.54169 17.7061 10.0904 18.6828 11.0672C19.6596 12.0439 20.2083 13.3687 20.2083 14.75C20.2083 16.1314 19.6596 17.4561 18.6828 18.4329C17.7061 19.4096 16.3813 19.9584 15 19.9584Z" fill="#F7A29E"/>
</svg>
